#tb 0: 1/25
#media_type 0: video
#codec_id 0: rawvideo
#dimensions 0: 176x288
#sar 0: 0/1
0,          0,          0,        1,   152064, 0xdc44d6ea
0,          1,          1,        1,   152064, 0x4f87d705
0,          2,          2,        1,   152064, 0xe3182a6e
0,          3,          3,        1,   152064, 0xc29fa0ea
0,          4,          4,        1,   152064, 0x8b4d5934
